<svg viewBox="0 0 140 140" xmlns="http://www.w3.org/2000/svg" fill-rule="evenodd" clip-rule="evenodd" stroke-linejoin="round" stroke-miterlimit="1.414"><path d="M69.994 3.802c-37.475 0-67.867 30.388-67.867 67.88 0 29.983 19.446 55.425 46.417 64.4 3.396.62 4.633-1.476 4.633-3.271 0-1.613-.058-5.879-.092-11.546-18.879 4.104-22.862-9.096-22.862-9.096-3.088-7.842-7.538-9.929-7.538-9.929-6.162-4.213.467-4.125.467-4.125 6.813.479 10.396 6.992 10.396 6.992 6.054 10.375 15.887 7.379 19.754 5.641.617-4.387 2.371-7.379 4.308-9.075-15.07-1.712-30.916-7.537-30.916-33.546 0-7.408 2.646-13.466 6.987-18.212-.7-1.717-3.029-8.617.667-17.963 0 0 5.696-1.825 18.662 6.959 5.413-1.505 11.221-2.259 16.992-2.284 5.767.025 11.571.779 16.992 2.284 12.958-8.784 18.646-6.959 18.646-6.959 3.704 9.346 1.375 16.246.679 17.963 4.35 4.746 6.975 10.804 6.975 18.212 0 26.075-15.871 31.813-30.988 33.492 2.434 2.096 4.604 6.238 4.604 12.571 0 9.075-.083 16.396-.083 18.621 0 1.812 1.225 3.925 4.667 3.262 26.95-8.992 46.379-34.416 46.379-64.391 0-37.492-30.392-67.88-67.879-67.88z" fill="#fff"/></svg>