<svg viewBox="0 0 1500 1500" xmlns="http://www.w3.org/2000/svg" fill-rule="evenodd" clip-rule="evenodd" stroke-linejoin="round" stroke-miterlimit="1.414"><path d="M850.667 983.198h191c45.833 0 83.333-37.5 83.333-83.333V316.531c0-45.833-37.5-83.333-83.333-83.333H458.333c-45.833 0-83.333 37.5-83.333 83.333v583.334c0 45.833 37.5 83.333 83.333 83.333h194l97.162 79.656 101.172-79.656zm-392.334-83.333V316.531h583.334v583.334H458.333z" fill="#fff" fill-rule="nonzero"/><path fill="none" stroke="#fff" d="M417 274.198h666.45v666.45H417z"/><path d="M500.306 635.192h222.15V357.504h-222.15v277.688zm0 222.149h222.15V690.729h-222.15v166.612zm277.687 0h222.15V579.654h-222.15v277.687zm0-499.837v166.613h222.15V357.504h-222.15z" fill="#fff" fill-rule="nonzero"/><text x="381.166" y="1264.17" font-family="'FiraSans-SemiBold','Fira Sans',sans-serif" font-weight="600" font-size="155" fill="#fff">Back<tspan x="717.206" y="1264.17">o</tspan>fﬁc<tspan x="1026.74" y="1264.17">e</tspan></text></svg>